<svg xmlns="http://www.w3.org/2000/svg" version="1.1" xmlns:xlink="http://www.w3.org/1999/xlink" xmlns:svgjs="http://svgjs.com/svgjs" width="1440" height="560" preserveAspectRatio="none" viewBox="0 0 1440 560"><g mask="url(&quot;#SvgjsMask1075&quot;)" fill="none"><rect width="1440" height="560" x="0" y="0" fill="#0e2a47"></rect><path d="M 0,62 C 57.6,93 172.8,205.2 288,217 C 403.2,228.8 460.8,130 576,121 C 691.2,112 748.8,194.2 864,172 C 979.2,149.8 1036.8,-4.4 1152,10 C 1267.2,24.4 1382.4,197.2 1440,244L1440 560L0 560z" fill="#184a7e"></path><path d="M 0,531 C 96,490.2 288,333.4 480,327 C 672,320.6 768,490.8 960,499 C 1152,507.2 1344,394.2 1440,368L1440 560L0 560z" fill="#2264ab"></path></g><defs><mask id="SvgjsMask1075"><rect width="1440" height="560" fill="#ffffff"></rect></mask></defs></svg>