<svg xmlns="http://www.w3.org/2000/svg" version="1.1" xmlns:xlink="http://www.w3.org/1999/xlink" xmlns:svgjs="http://svgjs.com/svgjs" width="1440" height="560" preserveAspectRatio="none" viewBox="0 0 1440 560"><g mask="url(&quot;#SvgjsMask1000&quot;)" fill="none"><rect width="1440" height="560" x="0" y="0" fill="#0e2a47"></rect><path d="M -53.61368036717971,181 C 42.39,245.6 234.39,500.6 426.3863196328203,504 C 618.39,507.4 714.39,221 906.3863196328202,198 C 1098.39,175 1194.39,409.2 1386.3863196328202,389 C 1578.39,368.8 1855.66,95.4 1866.3863196328202,97 C 1877.11,98.6 1525.28,337 1440,397" stroke="rgba(51, 121, 194, 0.58)" stroke-width="2"></path><path d="M -137.03165981343255,341 C -41.03,310.6 150.97,176.2 342.96834018656745,189 C 534.97,201.8 630.97,391.4 822.9683401865675,405 C 1014.97,418.6 1110.97,242.4 1302.9683401865675,257 C 1494.97,271.6 1755.56,505.4 1782.9683401865675,478 C 1810.37,450.6 1508.59,191.6 1440,120" stroke="rgba(51, 121, 194, 0.58)" stroke-width="2"></path><path d="M -477.76722669846123,228 C -381.77,276.4 -189.77,477.2 2.2327733015387707,470 C 194.23,462.8 290.23,223.4 482.23277330153877,192 C 674.23,160.6 770.23,338.8 962.2327733015388,313 C 1154.23,287.2 1346.68,26.8 1442.2327733015388,63 C 1537.79,99.2 1440.45,407.8 1440,494" stroke="rgba(51, 121, 194, 0.58)" stroke-width="2"></path><path d="M -289.6212252453282,479 C -193.62,420.6 -1.62,204.4 190.37877475467178,187 C 382.38,169.6 478.38,400 670.3787747546718,392 C 862.38,384 958.38,142.8 1150.3787747546717,147 C 1342.38,151.2 1572.45,397.4 1630.3787747546717,413 C 1688.3,428.6 1478.08,262.6 1440,225" stroke="rgba(51, 121, 194, 0.58)" stroke-width="2"></path></g><defs><mask id="SvgjsMask1000"><rect width="1440" height="560" fill="#ffffff"></rect></mask></defs></svg>